<svg width="34" height="34" viewBox="0 0 34 34" fill="#000" xmlns="http://www.w3.org/2000/svg">
<path fill-rule="evenodd" clip-rule="evenodd" d="M33.6663 16.9999C33.6663 26.2046 26.2043 33.6666 16.9997 33.6666C7.79492 33.6666 0.333008 26.2046 0.333008 16.9999C0.333008 7.79517 7.79492 0.333252 16.9997 0.333252C26.2043 0.333252 33.6663 7.79517 33.6663 16.9999ZM16.9997 26.5833C17.69 26.5833 18.2497 26.0236 18.2497 25.3333V15.3333C18.2497 14.6429 17.69 14.0833 16.9997 14.0833C16.3093 14.0833 15.7497 14.6429 15.7497 15.3333V25.3333C15.7497 26.0236 16.3093 26.5833 16.9997 26.5833ZM16.9997 8.66658C17.9202 8.66658 18.6663 9.41279 18.6663 10.3333C18.6663 11.2537 17.9202 11.9999 16.9997 11.9999C16.0792 11.9999 15.333 11.2537 15.333 10.3333C15.333 9.41279 16.0792 8.66658 16.9997 8.66658Z" fill="white"/>
</svg>
