<svg width="34" height="34" viewBox="0 0 34 34" fill="none" xmlns="http://www.w3.org/2000/svg">
<rect width="34" height="34" rx="17" fill="#E02D3C"/>
<path d="M12.8363 22.5219L11.6663 14.3333H22.333L21.163 22.5219C21.1176 22.8396 20.9591 23.1303 20.7166 23.3406C20.4741 23.5509 20.164 23.6666 19.843 23.6666H14.1563C13.8354 23.6666 13.5252 23.5509 13.2827 23.3406C13.0403 23.1303 12.8818 22.8396 12.8363 22.5219ZM22.9997 11.6666H19.6663V10.9999C19.6663 10.8231 19.5961 10.6535 19.4711 10.5285C19.3461 10.4035 19.1765 10.3333 18.9997 10.3333H14.9997C14.8229 10.3333 14.6533 10.4035 14.5283 10.5285C14.4032 10.6535 14.333 10.8231 14.333 10.9999V11.6666H10.9997C10.8229 11.6666 10.6533 11.7368 10.5283 11.8618C10.4032 11.9869 10.333 12.1564 10.333 12.3333C10.333 12.5101 10.4032 12.6796 10.5283 12.8047C10.6533 12.9297 10.8229 12.9999 10.9997 12.9999H22.9997C23.1765 12.9999 23.3461 12.9297 23.4711 12.8047C23.5961 12.6796 23.6663 12.5101 23.6663 12.3333C23.6663 12.1564 23.5961 11.9869 23.4711 11.8618C23.3461 11.7368 23.1765 11.6666 22.9997 11.6666Z" fill="#1B1F27"/>
</svg>
